<svg xmlns="http://www.w3.org/2000/svg" viewBox="0 0 68.61 24.51"><title>logo-white</title><path d="M27.38,14.9V9.55a.24.24,0,0,1,.07-.16.31.31,0,0,1,.2-.07h1.5a1.81,1.81,0,0,1,1.23.41A1.67,1.67,0,0,1,30.84,11v.07a1.69,1.69,0,0,1-.47,1.31,1.82,1.82,0,0,1-1.24.42H28.05V14.9a.18.18,0,0,1-.1.17.44.44,0,0,1-.47,0A.19.19,0,0,1,27.38,14.9Zm.67-2.62h1.08A1,1,0,0,0,29.9,12a1.2,1.2,0,0,0,.28-.85v-.1a1.18,1.18,0,0,0-.28-.84,1,1,0,0,0-.77-.28H28.05Z" style="fill:#fff"/><path d="M33.17,13.45v-2.4a1.69,1.69,0,0,1,.47-1.31,2.06,2.06,0,0,1,2.49,0,1.65,1.65,0,0,1,.47,1.31v2.4a1.66,1.66,0,0,1-.47,1.32,2.06,2.06,0,0,1-2.49,0A1.7,1.7,0,0,1,33.17,13.45Zm.67,0c0,.75.35,1.13,1,1.13a1,1,0,0,0,.78-.28,1.15,1.15,0,0,0,.27-.85v-2.4a1.12,1.12,0,0,0-.27-.84,1,1,0,0,0-.78-.28c-.69,0-1,.37-1,1.12Z" style="fill:#fff"/><path d="M39,14.32a.38.38,0,0,1,.09-.25.25.25,0,0,1,.19-.12.35.35,0,0,1,.19.1l.23.22a1,1,0,0,0,.37.23,1.7,1.7,0,0,0,.59.1,1.25,1.25,0,0,0,.81-.26.9.9,0,0,0,.29-.73.93.93,0,0,0-.27-.71,1.73,1.73,0,0,0-.65-.42L40,12.17a1.67,1.67,0,0,1-.65-.5,1.31,1.31,0,0,1-.27-.87,1.55,1.55,0,0,1,.16-.73,1.1,1.1,0,0,1,.42-.46,1.89,1.89,0,0,1,.55-.23,2.57,2.57,0,0,1,.62-.08,3,3,0,0,1,.94.15c.3.09.45.23.45.38a.41.41,0,0,1-.08.24.23.23,0,0,1-.21.13,2.13,2.13,0,0,1-.35-.14,1.92,1.92,0,0,0-.74-.15,1.39,1.39,0,0,0-.78.19.71.71,0,0,0-.3.63.76.76,0,0,0,.26.6,2.12,2.12,0,0,0,.66.36c.26.09.51.2.78.31a1.62,1.62,0,0,1,.91,1.54,1.58,1.58,0,0,1-.47,1.24,1.89,1.89,0,0,1-1.27.42,2.24,2.24,0,0,1-1.19-.3C39.13,14.71,39,14.51,39,14.32Z" style="fill:#fff"/><path d="M44.39,9.62a.31.31,0,0,1,.07-.21.2.2,0,0,1,.17-.09h3.24a.21.21,0,0,1,.18.09.37.37,0,0,1,.06.21.39.39,0,0,1-.06.21.22.22,0,0,1-.18.1H46.6v5a.19.19,0,0,1-.1.17.44.44,0,0,1-.47,0,.19.19,0,0,1-.1-.17v-5H44.64a.2.2,0,0,1-.17-.09A.37.37,0,0,1,44.39,9.62Z" style="fill:#fff"/><path d="M50.38,14.9V9.66a.29.29,0,0,1,.24-.34h.1c.21,0,.39.14.53.42l1.25,2.4,1.26-2.4c.15-.28.33-.42.53-.42a.29.29,0,0,1,.33.24h0a.11.11,0,0,1,0,.08v5.24a.19.19,0,0,1-.09.18.49.49,0,0,1-.47,0,.18.18,0,0,1-.1-.18V10.72L52.76,13a.29.29,0,0,1-.27.19.26.26,0,0,1-.24-.19L51,10.68V14.9a.17.17,0,0,1-.09.17.49.49,0,0,1-.23.08.39.39,0,0,1-.23-.07A.17.17,0,0,1,50.38,14.9Z" style="fill:#fff"/><path d="M56.91,14.86a.14.14,0,0,1,0-.06l1.62-5.24c.05-.16.18-.24.41-.24s.36.08.41.24L61,14.82v0a.26.26,0,0,1-.13.2.6.6,0,0,1-.29.08.22.22,0,0,1-.24-.15L60,13.83H57.9L57.55,15a.21.21,0,0,1-.24.15.53.53,0,0,1-.27-.08A.23.23,0,0,1,56.91,14.86Zm1.15-1.59h1.78l-.89-3Z" style="fill:#fff"/><path d="M63.31,14.9V9.55c0-.15.11-.23.33-.23a.42.42,0,0,1,.28.1,1,1,0,0,1,.23.32l2,3.88V9.55a.19.19,0,0,1,.1-.17.49.49,0,0,1,.47,0,.19.19,0,0,1,.1.17V14.9a.19.19,0,0,1-.1.17.39.39,0,0,1-.23.07.49.49,0,0,1-.43-.31l-2.07-4V14.9a.17.17,0,0,1-.09.17.44.44,0,0,1-.47,0A.16.16,0,0,1,63.31,14.9Z" style="fill:#fff"/><path d="M21.59,4.92a12,12,0,1,0-2.16,16.83A12,12,0,0,0,21.59,4.92Z" style="fill:#ff6c37"/><path d="M16.14,7.9,11.08,13,9.65,11.53C14.63,6.55,15.13,7,16.14,7.9Z" style="fill:#fff"/><path d="M11.08,13.14h0a.18.18,0,0,1-.12-.05L9.52,11.65a.18.18,0,0,1,0-.25c4.91-4.91,5.58-4.68,6.74-3.63a.16.16,0,0,1,.06.13.14.14,0,0,1-.05.13l-5.06,5.06A.19.19,0,0,1,11.08,13.14ZM9.9,11.53l1.18,1.18,4.8-4.8a1.08,1.08,0,0,0-1.42-.24C13.59,8.06,12.19,9.25,9.9,11.53Z" style="fill:#ff6c37"/><path d="M12.53,14.41,11.15,13,16.21,8C17.57,9.33,15.55,11.55,12.53,14.41Z" style="fill:#fff"/><path d="M12.53,14.59h0a.21.21,0,0,1-.12-.05L11,13.16A.21.21,0,0,1,11,13a.19.19,0,0,1,0-.13l5.06-5.06a.19.19,0,0,1,.26,0A1.55,1.55,0,0,1,16.82,9c0,1.35-1.54,3.05-4.16,5.53A.21.21,0,0,1,12.53,14.59ZM11.41,13l1.13,1.13c2-1.89,3.91-3.84,3.92-5.16a1.14,1.14,0,0,0-.26-.77Z" style="fill:#ff6c37"/><path d="M9.69,11.56l1,1a.06.06,0,0,1,0,.09l-2.11.45a.2.2,0,0,1-.18-.34l1.23-1.22S9.67,11.54,9.69,11.56Z" style="fill:#fff"/><path d="M8.53,13.3a.39.39,0,0,1-.33-.19.38.38,0,0,1,.07-.45l1.22-1.23a.24.24,0,0,1,.32,0l1,1a.22.22,0,0,1,.06.22.23.23,0,0,1-.17.16l-2.11.45Zm1.12-1.52L8.52,12.91s0,0,0,0,0,0,0,0l1.87-.4Zm.09-.09Z" style="fill:#ff6c37"/><path d="M18.83,5.09a1.94,1.94,0,1,0-.35,3.06L17.12,6.79Z" style="fill:#fff"/><path d="M17.48,8.61A2.12,2.12,0,0,1,16,5a2.14,2.14,0,0,1,3,0,.17.17,0,0,1,0,.26L17.38,6.79,18.61,8a.17.17,0,0,1,.05.15.18.18,0,0,1-.08.13A2.17,2.17,0,0,1,17.48,8.61Zm0-3.88a1.76,1.76,0,0,0-1.24,3,1.75,1.75,0,0,0,1.94.37L17,6.92a.16.16,0,0,1-.06-.13A.16.16,0,0,1,17,6.67L18.56,5.1A1.79,1.79,0,0,0,17.48,4.73Z" style="fill:#ff6c37"/><path d="M18.86,5.12l0,0-1.71,1.7,1.36,1.36a2.07,2.07,0,0,0,.38-.28A2,2,0,0,0,18.86,5.12Z" style="fill:#fff"/><path d="M18.48,8.33a.15.15,0,0,1-.12-.05L17,6.92a.16.16,0,0,1-.06-.13A.16.16,0,0,1,17,6.67L18.7,5A.18.18,0,0,1,19,5l0,0a2.1,2.1,0,0,1,0,3,1.82,1.82,0,0,1-.4.32A.16.16,0,0,1,18.48,8.33Zm-1.1-1.54,1.13,1.13a1.92,1.92,0,0,0,.22-.18,1.77,1.77,0,0,0,.52-1.25,1.72,1.72,0,0,0-.43-1.14Z" style="fill:#ff6c37"/><path d="M16.35,8.11h0a.73.73,0,0,0-1,0l-4.53,4.52.75.76,4.79-4.2A.74.74,0,0,0,16.35,8.11Z" style="fill:#fff"/><path d="M11.53,13.57a.18.18,0,0,1-.12-.05l-.76-.76a.18.18,0,0,1,0-.25L15.18,8a.92.92,0,0,1,1.3,0h0a.92.92,0,0,1,.27.68.94.94,0,0,1-.31.66l-4.79,4.2A.17.17,0,0,1,11.53,13.57ZM11,12.63l.5.51L16.2,9.05a.55.55,0,0,0,.19-.4.53.53,0,0,0-.17-.41.56.56,0,0,0-.79,0Z" style="fill:#ff6c37"/><path d="M7.31,17.78a.1.1,0,0,0,0,.12l.2.87a.25.25,0,0,1-.41.23L5.73,17.68,10,13.38l1.48,0,1,1A22.69,22.69,0,0,1,7.31,17.78Z" style="fill:#fff"/><path d="M7.22,19.25a.43.43,0,0,1-.3-.13L5.61,17.81a.16.16,0,0,1-.06-.13.16.16,0,0,1,.06-.12l4.3-4.31A.17.17,0,0,1,10,13.2l1.49,0a.18.18,0,0,1,.12,0l1,1a.16.16,0,0,1,.05.14.16.16,0,0,1-.06.13l-.08.07a24.5,24.5,0,0,1-5.13,3.29l.19.81a.43.43,0,0,1-.41.53ZM6,17.68l1.18,1.19a.06.06,0,0,0,.08,0,.06.06,0,0,0,0-.07l-.2-.87a.28.28,0,0,1,.15-.32h0a24.59,24.59,0,0,0,5-3.22l-.82-.82-1.34,0Zm1.44.18Z" style="fill:#ff6c37"/><path d="M4.7,18.71l1-1,1.54,1.54-2.45-.17A.2.2,0,0,1,4.7,18.71Z" style="fill:#fff"/><path d="M7.27,19.4h0l-2.44-.17a.38.38,0,0,1-.24-.64h0l1-1a.18.18,0,0,1,.25,0l1.53,1.53a.17.17,0,0,1,0,.2A.19.19,0,0,1,7.27,19.4Zm-2.44-.56a0,0,0,0,0,0,0,0,0,0,0,0,0,0l2,.13L5.73,17.94Z" style="fill:#ff6c37"/><polygon points="11.62 13.5 9.6 13.81 10.77 12.65 11.62 13.5" style="fill:#fff"/><path d="M9.6,14a.17.17,0,0,1-.16-.1.17.17,0,0,1,0-.2l1.16-1.17a.19.19,0,0,1,.26,0l.85.85a.17.17,0,0,1,0,.18.17.17,0,0,1-.14.13l-2,.31Zm1.17-1.09-.65.65,1.12-.17Z" style="fill:#ff6c37"/><path d="M11.62,13.5l-1.41.18a.18.18,0,0,1-.17-.3l.73-.73Z" style="fill:#fff"/><path d="M10.17,13.87a.37.37,0,0,1-.32-.19.36.36,0,0,1,.06-.43l.73-.73a.19.19,0,0,1,.26,0l.85.85a.18.18,0,0,1-.11.31l-1.4.18Zm0-.37h0l1.06-.13-.47-.47-.6.6Z" style="fill:#ff6c37"/><path d="M18.87,6.27a.15.15,0,0,0-.19-.06.14.14,0,0,0-.06.19.43.43,0,0,1-.05.45.13.13,0,0,0,0,.19.11.11,0,0,0,.08,0A.13.13,0,0,0,18.78,7,.69.69,0,0,0,18.87,6.27Z" style="fill:#ff6c37"/></svg>